<svg id="esqmeJLyxCU1" xmlns="http://www.w3.org/2000/svg" xmlns:xlink="http://www.w3.org/1999/xlink" viewBox="0 0 85 85" shape-rendering="geometricPrecision" text-rendering="geometricPrecision"><style><![CDATA[#esqmeJLyxCU4_to {animation: esqmeJLyxCU4_to__to 5700ms linear infinite normal forwards}@keyframes esqmeJLyxCU4_to__to { 0% {transform: translate(40px,40.946399px);animation-timing-function: cubic-bezier(0,0.44,0.99,0.455)} 52.631579% {transform: translate(41px,164.946399px)} 100% {transform: translate(41px,164.946399px)}} #esqmeJLyxCU5_to {animation: esqmeJLyxCU5_to__to 5700ms linear infinite normal forwards}@keyframes esqmeJLyxCU5_to__to { 0% {transform: translate(40px,40.946399px)} 47.368421% {transform: translate(40px,40.946399px);animation-timing-function: cubic-bezier(0,0.44,0.99,0.455)} 100% {transform: translate(41px,164.946399px)}}]]></style><circle id="esqmeJLyxCU2" r="41" transform="matrix(1 0 0 1 41 42)" fill="none" fill-rule="evenodd" stroke="rgb(0,0,0)" stroke-width="2"/><g id="esqmeJLyxCU3" transform="matrix(1 0 0 1 0 -61.053601)" mask="url(#esqmeJLyxCU6)"><g id="esqmeJLyxCU4_to" transform="translate(40,40.946399)"><path id="esqmeJLyxCU4" d="M41,59C49.284271,59,56,52.185062,56,43.778409C56,38.173974,51,30.581171,41,21C31,30.581171,26,38.173974,26,43.778409C26,52.185062,32.715729,59,41,59Z" transform="translate(-41,-40)" fill="none" fill-rule="evenodd" stroke="rgb(0,0,0)" stroke-width="2"/></g><g id="esqmeJLyxCU5_to" transform="translate(40,40.946399)"><path id="esqmeJLyxCU5" d="M41,59C49.284271,59,56,52.185062,56,43.778409C56,38.173974,51,30.581171,41,21C31,30.581171,26,38.173974,26,43.778409C26,52.185062,32.715729,59,41,59Z" transform="translate(-41,-40)" fill="none" fill-rule="evenodd" stroke="rgb(0,0,0)" stroke-width="2"/></g><mask id="esqmeJLyxCU6" mask-type="luminance"><ellipse id="esqmeJLyxCU7" rx="41" ry="41" transform="matrix(1 0 0 1 41 103)" fill="rgb(255,255,255)" stroke="none" stroke-width="0"/></mask></g></svg>