<svg width="386" height="369" xmlns="http://www.w3.org/2000/svg" xmlns:xlink="http://www.w3.org/1999/xlink"><defs><path d="M353.55 236.628c-5.918 18.233 6.64 46.059-4.4 61.257-11.168 15.328-41.61 11.933-56.948 23.094-15.183 11.058-21.281 41.096-39.552 47.01-17.602 5.71-40.144-14.812-59.65-14.812s-42.048 20.547-59.65 14.813c-18.245-5.915-24.344-35.978-39.552-47.01-15.337-11.162-45.78-7.742-56.948-23.095-11.065-15.172 1.518-42.998-4.4-61.257C26.737 219.038 0 203.993 0 184.5c0-19.493 26.737-34.538 32.45-52.128 5.918-18.233-6.64-46.059 4.4-61.257C48.018 55.787 78.46 59.182 93.798 48.02c15.183-11.058 21.281-41.096 39.552-47.01C150.952-4.7 173.494 15.822 193 15.822S235.048-4.724 252.65 1.01c18.245 5.915 24.344 35.978 39.552 47.01 15.337 11.162 45.78 7.742 56.948 23.095 11.065 15.172-1.518 42.998 4.4 61.257 5.713 17.59 32.45 32.635 32.45 52.128 0 19.493-26.737 34.538-32.45 52.128Z" id="a"/><path id="c" d="M0 0h130.008v167.987H0z"/></defs><g fill="none" fill-rule="evenodd"><mask id="b" fill="#fff"><use xlink:href="#a"/></mask><use fill="#FF9000" xlink:href="#a"/><g mask="url(#b)"><g transform="matrix(-1 0 0 1 258 239)"><mask id="d" fill="#fff"><use xlink:href="#c"/></mask><path d="M129.825 113.24c.695-1.444-.772-2.497-1.32-2.9a242.15 242.15 0 0 1-1.77-1.277c-1.377-.997-2.81-2.027-4.188-3.058-2.138-1.613-3-3.147-3.113-5.14-.727-13.261-4.568-22.065-14.78-28.695.056-8.646-.18-17.304-.705-25.94a385.19 385.19 0 0 0-1.355-16.463 4.535 4.535 0 0 0-1.814-3.17c-20.917-15.49-30.2-20.955-30.2-20.955L62.822.826A5.533 5.533 0 0 0 57.446.58c-1.735.862-3.37 1.926-4.982 3.024-2.777 1.881-5.655 3.65-8.342 5.656-13.549 10.09-19.685 15.5-22.193 17.886a4.921 4.921 0 0 0-1.534 3.584c0 4.155.011 8.31.011 12.466.302.078.605.19.896.336 1.668.873 2.62 2.643 2.62 4.85 0 .167 0 .369-.011.57-.023 1.087-.056 2.71.627 3.17.56.157 1.534.28 2.654.426.537.067 1.097.145 1.68.235 1.477.213 2.922.593 3.885.862 1.858.527 4.658 1.333 4.445 4.256-.067.907-.403 1.635-.974 2.128-.594.504-1.389.717-2.385.639-.515-.045-1.075-.19-1.669-.348-.66-.168-1.4-.37-2.194-.448.38.348.694.75.873 1.232.224.605.302 1.568-.537 2.722l-.068.078c-.537.56-1.769 1.31-3.314 1.132a3.41 3.41 0 0 1-.067 1.78 3.237 3.237 0 0 1-1.545 1.848c-1.994 1.12-3.83-.033-4.905-.795v4.279c-.246-.012-6.203-.303-9.999-5.858-.605-.874-.65-1.882-.134-2.632.425-.605 1.567-1.512 4.546-.773 1.803.448 2.575.75 4.58 1.96l.145.112 1.276 1.277c.09.067.19.134.292.213 1.142.817 2.273 1.5 3.437.84l.045-.023s.571-.302.761-.94c.168-.56.034-1.244-.403-2.039a.85.85 0 0 1 .146-1.008l.414-.414.56.269c1.624.873 2.8-.101 2.99-.28.492-.695.347-1.076.302-1.21-.336-.918-2.161-1.624-2.99-1.826l-.123-.033a.903.903 0 0 1-.549-.963.915.915 0 0 1 .807-.784c.37-.034.739 0 1.254.067.459.056 1.041.123 1.859.168 1.12.056 2.116.325 2.922.526.549.146 1.019.27 1.4.303.56.044.974-.045 1.231-.27.303-.257.392-.705.426-1.04.09-1.266-.672-1.871-3.303-2.622-.907-.257-2.285-.616-3.673-.817-.571-.09-1.131-.157-1.657-.224-1.3-.168-2.33-.314-2.99-.515l-.145-.068c-1.59-.862-1.534-3.124-1.512-4.625 0-.19.011-.37.011-.538 0-1.613-.65-2.867-1.78-3.46-.907-.47-1.96-.415-2.766.145-.739.515-.526 1.736-.146 3.405.325 1.4.65 2.845-.369 3.561-1.523 1.076-3.124 1.378-4.972 1.714-1.175.213-2.497.46-4.03.952l-.135.045c-2.553.806-5.442 1.725-7.368 5.006-.179.426-1.937 4.973.515 9.957 2.654 5.387 9.092 9.386 19.136 11.872v1.389c0 4.401.012 8.803.012 13.205 0 5.544.01 11.088.01 16.632 0 1.377.706 2.654 1.87 3.393l26.37 15.77c-5.654 8.243-10.044 14.672-13.873 18.245-.773.716-3.863 3.505-5.8 1.747-1.613-1.456-2.374-2.867-3.035-4.872-1.366-4.178-6.393-4.178-8.745-.818-2.642 3.763-.716 8.176 1.702 11.491 2.576 3.54 5.8 7.168 9.932 8.87 1.948.807 4.098 1.143 6.17.594 2.06-.548 3.202-2.06 3.83-4.01.615-1.914 1.634-5.24 6.617-10.012 1.523-1.456 7.827-8.434 14.579-16.038 1.668.224 3.314.056 4.423-.056 4.613 9.833 15.105 17.27 24.869 16.587 1.758-.123 3.493-.28 5.195-.728.347-.09 2.25-.896 2.486-.683.448.414-.504 1.646-.75 1.948-1.266 1.58-2.844 2.767-3.83 4.581-.918 1.703-1.22 3.685-.616 5.544 1.243 3.842 5.409 4.525 8.544 2.565 3.437-2.14 5.33-6.406 6.528-10.102 1.12-3.484 1.77-7.213.761-10.797-.515-1.803-1.511-3.64-3.09-4.704-1.579-1.064-3.56-1.389-5.352-.84-4.177 1.277-13.37 3.472-18.442-.482 0 0-3.057-2.856-2.867-8.265l3.214-1.804.358-.19c4.065-2.117 8.029-4.491 11.925-6.866 0 0 3.684-2.352 6.752-5.107a5.982 5.982 0 0 0 1.96-3.763c1.03-9.083 1.746-18.2 2.138-27.328 2.072 2.789 2.833 4.86 3.259 5.914.403.985.728 2.038.93 3.08h-.012c.392 2.296.918 4.85.974 7.548.09 4.122-.459 7.056-1.948 8.423-.885.817-1.803 1.669-2.71 2.464l-.448.392c-.38.336-.884.851-.907 1.568-.022.694.414 1.232.75 1.568 1.03 1.041 2.34 1.31 3.908.806.448-.145 4.367-1.937 4.457-1.96.302.683 3.169 4.95 3.807 5.824 1.422 1.938 5.766 5.443 8.163 2.453.884-1.098-.627-3.26-.941-3.707.146.112.291.224.448.325.974.672 5.039 2.083 5.666-1.826.123-.773-.482-1.411-.896-1.814a181.196 181.196 0 0 1-2.934-2.968c.168.067.336.123.504.19 1.4.504 2.967-.66 3.482-1.714" fill="#450073" mask="url(#d)"/></g><path d="M197.541 294.28c3.483-2.363 3.013-4.244 2.162-6.126-.303-.66 0-1.434.66-1.736.66-.302 1.433 0 1.736.66.492 1.098.94 2.454.795 3.92 4.378.426 13.75.695 19.349-3.762a1.325 1.325 0 0 1 1.847.201 1.326 1.326 0 0 1-.201 1.848c-2.307 1.837-7.256 4.581-16.281 4.581-1.713 0-3.583-.1-5.599-.325-.604.963-1.556 1.95-2.99 2.912a1.274 1.274 0 0 1-.739.224c-.425 0-.828-.201-1.086-.57a1.303 1.303 0 0 1 .347-1.827M205.037 273.155c-1.676-3.484-5.077-5.325-7.596-4.113-2.519 1.213-3.202 5.02-1.525 8.504 1.676 3.483 5.077 5.325 7.596 4.112 2.518-1.213 3.201-5.02 1.525-8.503M223.807 268.7c-1.676-3.484-5.077-5.325-7.596-4.113-2.518 1.213-3.201 5.02-1.525 8.504 1.676 3.483 5.077 5.324 7.596 4.112 2.518-1.213 3.201-5.02 1.525-8.504" fill="#FFF"/><path d="M218.631 268.177c-.644-1.904-2.168-3.108-3.404-2.69-1.236.418-1.716 2.301-1.071 4.205.644 1.905 2.168 3.109 3.404 2.69 1.236-.418 1.716-2.3 1.071-4.205M199.9 272.73c-.644-1.903-2.169-3.108-3.405-2.69-1.236.42-1.715 2.302-1.07 4.206.644 1.904 2.168 3.109 3.404 2.69 1.236-.418 1.715-2.301 1.071-4.205" fill="#450073"/></g></g></svg>